<?xml version="1.0" encoding="UTF-8"?><svg id="a" xmlns="http://www.w3.org/2000/svg" xmlns:xlink="http://www.w3.org/1999/xlink" viewBox="0 0 182.72 262.07"><defs><style>.c{fill:url(#b);}.d{fill:#f3e0c2;}.e{fill:#e88064;}.f{fill:#3e3e3e;}</style><linearGradient id="b" x1="50.07" y1="123.81" x2="124.94" y2="80.58" gradientTransform="matrix(1, 0, 0, 1, 0, 0)" gradientUnits="userSpaceOnUse"><stop offset="0" stop-color="#c46b3e"/><stop offset="1" stop-color="#ec915b"/></linearGradient></defs><g><path class="d" d="M100.75,169.26c-4.16,0-9.25-1.04-15.12-3.11-2.56-.9-5.01-1.96-7.37-2.98-3.27-1.41-6.64-2.87-9.97-3.72-4.91-1.26-10.12-1.34-15.65-1.44-3.88-.07-7.9-.13-11.93-.63-5.19-.64-14.35-2.94-17.27-11.14-1.5-4.19-.87-9.09,1.71-13.44,1.65-2.77,3.96-5.33,7.3-8.06,1.85-1.52,3.74-2.86,5.56-4.17,.7-.5,1.39-.99,2.05-1.48,.05-.04,.11-.08,.16-.12-2.07-4.88-3.1-10.15-3.08-15.68,.05-13.76,4.92-26.25,13.36-34.27,6.26-5.95,14.96-9.99,25.15-11.69,3.56-.59,7.2-.89,10.84-.89,2.77,0,5.52,.17,8.25,.51h-.01l3.1-3.6c1.12-1.29,2.36-2.36,3.71-3.19-2.32-3.48-3.5-7.56-3.41-11.9l.12-5.92,5.79,1.24c3.13,.67,5.97,1.98,8.39,3.85,.66-2.7,1.68-5.44,3.3-8,.21-.34,.7-1.82-2.03-6.7-.36-.64-.76-1.32-1.15-1.97-1.85-3.11-3.95-6.64-4.39-10.96-.35-3.4,.67-6.27,2.88-8.08,1.37-1.12,3.06-1.72,4.9-1.72s3.59,.56,5.1,1.58c1.92,1.3,3.13,3.08,4.01,4.38l.18,.27c1.66,2.44,3.54,4.76,5.58,6.9,1.21,1.27,1.98,1.9,2.66,2.18,.11,.05,.26,.08,.38,.09,.1-.13,.22-.29,.31-.41,.39-.53,.91-1.25,1.63-1.93,1.43-1.36,3.43-2.17,5.34-2.17,.12,0,.23,0,.35,0,1.81,.1,3.44,.89,4.59,2.23,.74,.86,1.13,1.77,1.35,2.57,4.4,.7,5.38,3.15,5.76,4.11,.74,1.84,.42,3.52,.24,4.38,.2,.32,.59,.83,.9,1.23,.73,.94,1.55,2.01,2.18,3.37,2.82,6.08-.7,12.11-3.03,16.1l-.19,.32c-2.57,4.41-3.66,8.06-3.33,11.16,.22,2.14,1.11,4.31,2.14,6.81l.37,.91c7.85,19.36,7.99,30.36,7.42,36.95-.76,8.73-4.88,16.41-8.52,23.19-1.56,2.9-3.16,5.89-5.5,8.64-3.15,3.69-7,6.2-10.73,8.63-1.22,.79-2.47,1.61-3.64,2.43-5.3,3.75-9.84,8.37-13.49,13.74-.25,.36-.49,.73-.74,1.1-2.19,3.29-4.92,7.39-9.62,9.3-1.97,.8-4.29,1.21-6.89,1.21Z"/><path class="e" d="M113.85,52.04c-.29-2.65-1.29-5.1-2.93-7.17-1.64-2.07-3.8-3.61-6.31-4.5,.29,2.65,1.29,5.1,2.93,7.17,1.64,2.07,3.8,3.61,6.31,4.5Z"/><path class="e" d="M117.32,56.91c6.03,6.03,12.89,14.54,15.28,19.04,0,.02,.03,.05,.09,.06,.05,0,.1-.01,.13-.05,3.26-3.7,8.28-8.55,11.99-11.61-.64-.08-1.37-.14-2.16-.21-5-.43-13.26-1.15-25.34-7.24Z"/><path class="e" d="M108.39,54.47c-1.66,.1-3.23,.76-4.61,1.95,1.51,1.02,3.15,1.5,4.8,1.4,1.66-.1,3.23-.76,4.61-1.95-1.51-1.02-3.14-1.5-4.8-1.4Z"/><path class="d" d="M142.92,61.15c.57,.05,1.11,.1,1.62,.15-.44-1.38-.79-2.79-.95-4.27-.47-4.5,.9-9.43,4.17-15.05l.19-.32c1.95-3.35,4.17-7.14,2.75-10.18-.33-.71-.87-1.42-1.45-2.16-1.17-1.52-2.5-3.24-2.25-5.52,.03-.31,.09-.6,.15-.86,.05-.24,.14-.65,.1-.76-.16-.13-.93-.2-1.39-.24-1.19-.11-2.83-.26-3.79-1.61-.54-.76-.63-1.58-.7-2.25-.03-.25-.08-.73-.16-.82-.11-.03-.62,.06-1,.42-.3,.29-.58,.67-.88,1.07-.41,.56-.87,1.19-1.51,1.72-1.72,1.42-4.37,1.71-6.76,.74-1.95-.8-3.49-2.24-4.87-3.68-2.28-2.39-4.38-4.98-6.24-7.71l-.19-.28c-.72-1.06-1.41-2.07-2.31-2.68-.71-.48-1.78-.69-2.36-.21-.48,.39-.69,1.32-.57,2.48,.3,2.92,1.87,5.56,3.53,8.35,.41,.69,.83,1.4,1.23,2.11,2.07,3.68,4.51,9.06,1.86,13.25-2.98,4.7-3.36,10.41-3.77,16.45-.09,1.39-.19,2.78-.32,4.18,.18,.04,.37,.1,.54,.19,12.16,6.34,20.4,7.05,25.33,7.48Zm-16.76-35.47c1.73-2.62,5.51-2.7,7.94-1.12,2.25,1.45,3.51,3.94,4.43,5.76,1.4,2.76,2.77,5.53,4.13,8.32,.32,.65,.12,1.44-.46,1.87-.76,.56-1.83,.29-2.24-.56-1.35-2.78-2.72-5.54-4.11-8.28-.99-1.96-1.93-3.65-3.38-4.59-1.18-.76-3.09-.82-3.8,.25-.72,1.09-.11,2.9,.58,4.52l6.83,16.13c.27,.65,.06,1.39-.5,1.8h0c-.78,.57-1.89,.26-2.27-.63l-6.83-16.13c-.66-1.55-2.02-4.77-.32-7.35Z"/><path class="c" d="M67.51,138.25c9.03,5.3,18.87,7.43,27.7,6,3.21-.52,5.95-1.47,8.14-2.83,2.15-1.33,3.94-3.13,5.74-5.07,12.28-13.85,11.8-35.12-1.47-48.38-10.9-10.9-28.63-10.9-39.53,0-4.17,4.17-6.46,9.71-6.46,15.6s2.29,11.43,6.46,15.6c3.28,3.28,7.63,5.08,12.27,5.08,3.75,0,7.32-1.18,10.28-3.37,3.07-2.27,5.87-7.15,5.96-10.97,.09-3.76-1.33-7.3-3.97-9.95-4.12-4.12-10.82-4.12-14.94,0-2.89,2.89-3.15,7.43-.78,10.62,.41,.55,.36,1.33-.13,1.81l-.16,.16c-.6,.6-1.6,.52-2.11-.17-3.26-4.37-2.91-10.59,1.06-14.56,5.29-5.29,13.9-5.29,19.19,0,3.13,3.13,4.86,7.3,4.86,11.73s-1.73,8.6-4.86,11.73c-3.84,3.85-8.96,5.96-14.39,5.96s-10.55-2.12-14.39-5.96c-4.73-4.73-7.34-11.03-7.34-17.73s2.61-12.99,7.34-17.73c12.07-12.07,31.71-12.07,43.78,0,11.43,11.44,14.12,28.36,8.05,42.37,.96-.62,1.94-1.18,2.9-1.73,1.65-.94,3.21-1.84,4.6-2.96,3.62-2.92,6.16-7.67,6.98-13.05,.69-4.53,.27-9.59-1.27-15.48-1.94-7.41-6.1-17.57-14.92-23.88-2.95-2.11-6.47-3.82-10.76-5.25-6.07-2.01-12.46-3.03-18.84-3.03-3.28,0-6.55,.27-9.78,.81-8.93,1.49-16.47,4.95-21.8,10.02-7.18,6.83-11.33,17.64-11.37,29.66-.05,14.01,7.79,25.43,23.98,34.93Z"/><path class="f" d="M133.31,49.17c.38,.89,1.48,1.2,2.27,.63h0c.57-.41,.78-1.16,.5-1.81l-6.83-16.13c-.69-1.63-1.3-3.43-.58-4.52,.71-1.07,2.62-1.01,3.8-.25,1.45,.94,2.39,2.63,3.38,4.59,1.39,2.74,2.76,5.5,4.11,8.28,.41,.84,1.48,1.11,2.24,.56,.59-.43,.78-1.22,.46-1.87-1.36-2.79-2.73-5.57-4.13-8.32-.92-1.82-2.18-4.3-4.43-5.76-2.44-1.58-6.21-1.5-7.94,1.12-1.7,2.58-.34,5.8,.32,7.35l6.83,16.13Z"/><path class="f" d="M149.32,65.37l-.37-.91c-1.08-2.63-2.1-5.12-2.37-7.75-.4-3.85,.84-8.17,3.78-13.22l.19-.32c2.21-3.79,4.96-8.5,2.88-12.97-.47-1.02-1.14-1.89-1.79-2.73-.94-1.23-1.76-2.28-1.64-3.36,.02-.16,.06-.35,.1-.56,.14-.66,.33-1.56-.05-2.5-.73-1.83-2.65-2-3.91-2.12-.58-.05-1.45-.13-1.61-.36-.09-.12-.13-.54-.17-.84-.08-.69-.18-1.64-.86-2.43-.54-.63-1.31-1-2.18-1.05-1.1-.06-2.32,.42-3.18,1.24-.5,.47-.89,1-1.23,1.47-.34,.46-.65,.89-1.01,1.19-.99,.82-2.58,.73-3.7,.27-1.35-.55-2.51-1.59-3.83-2.97-2.17-2.27-4.16-4.74-5.93-7.33l-.18-.27c-.81-1.19-1.73-2.55-3.11-3.48-1.59-1.07-4.12-1.54-5.95-.05-1.3,1.07-1.89,2.88-1.66,5.11,.37,3.58,2.18,6.63,3.93,9.58,.4,.67,.81,1.37,1.19,2.04,1.69,3.01,3.73,7.34,1.94,10.17-2.64,4.18-3.48,8.98-3.92,13.81-.41-.71-.87-1.4-1.39-2.05-2.48-3.14-5.92-5.25-9.95-6.11l-1.78-.38-.04,1.82c-.08,4.11,1.19,7.95,3.67,11.08,.62,.79,1.31,1.51,2.05,2.16-2.57,.4-4.91,1.76-6.83,3.99l-.95,1.1,1.08,.99c2.28,2.09,4.91,3.18,7.65,3.18,.2,0,.4,0,.6-.02,1.51-.09,2.96-.5,4.3-1.22-.46,1.84-1.1,3.6-2.03,5.25-1.48-.66-3.06-1.26-4.76-1.82-9.65-3.2-20.05-4.01-30.07-2.34-9.52,1.59-17.61,5.32-23.38,10.81-7.78,7.39-12.26,18.99-12.31,31.83-.02,6.04,1.29,11.62,3.96,16.79-.81,.57-1.62,1.15-2.42,1.73-.68,.5-1.38,1-2.09,1.5-1.78,1.27-3.62,2.59-5.38,4.03-3.02,2.47-5.09,4.75-6.53,7.17-2.07,3.48-2.59,7.34-1.44,10.57,2.31,6.49,10.08,8.37,14.5,8.91,3.85,.47,7.78,.54,11.58,.61,5.73,.1,11.14,.19,16.43,1.54,3.59,.92,7.09,2.43,10.48,3.89,2.32,1,4.71,2.03,7.15,2.89,5.53,1.94,10.21,2.91,13.99,2.91,2.17,0,4.04-.32,5.62-.96,3.73-1.52,6.04-4.98,8.07-8.03,.25-.38,.5-.76,.76-1.13,3.88-5.71,8.7-10.62,14.34-14.6,1.21-.86,2.5-1.69,3.74-2.5,3.53-2.3,7.17-4.67,10-7.99,2.11-2.47,3.63-5.3,5.1-8.04,3.48-6.49,7.43-13.84,8.13-21.88,.54-6.24,.39-16.7-7.18-35.37Zm-31.96-16.07c.41-6.04,.79-11.75,3.77-16.45,2.65-4.18,.21-9.56-1.86-13.25-.4-.71-.82-1.42-1.23-2.11-1.66-2.79-3.23-5.43-3.53-8.35-.12-1.16,.1-2.09,.57-2.48,.58-.47,1.65-.26,2.36,.21,.9,.61,1.58,1.61,2.31,2.68l.19,.28c1.86,2.73,3.96,5.32,6.24,7.71,1.38,1.44,2.92,2.89,4.87,3.68,2.39,.97,5.04,.68,6.76-.74,.64-.53,1.1-1.16,1.51-1.72,.3-.4,.57-.78,.88-1.07,.38-.36,.89-.45,1-.42,.08,.09,.13,.56,.16,.82,.07,.66,.17,1.49,.7,2.25,.96,1.36,2.6,1.5,3.79,1.61,.46,.04,1.23,.11,1.39,.24,.03,.11-.05,.52-.1,.76-.05,.26-.12,.55-.15,.86-.24,2.28,1.08,4,2.25,5.52,.57,.74,1.12,1.45,1.45,2.16,1.42,3.05-.8,6.84-2.75,10.18l-.19,.32c-3.27,5.62-4.64,10.54-4.17,15.05,.15,1.48,.5,2.89,.95,4.27-.51-.05-1.04-.1-1.62-.15-4.92-.43-13.17-1.14-25.33-7.48-.18-.09-.36-.15-.54-.19,.13-1.39,.22-2.79,.32-4.18Zm14.66,17.3c1.44,.42,2.94,.64,4.45,.7,1.51,.05,3.04-.06,4.55-.4,.41-.09,.82-.2,1.23-.33-3.24,2.9-6.87,6.5-9.42,9.4-.04,.04-.08,.06-.13,.05-.06,0-.08-.04-.09-.06-2.39-4.5-9.26-13.02-15.28-19.04,12.08,6.08,20.34,6.8,25.34,7.24,.26,.02,.51,.04,.76,.07-.84,.55-1.79,.99-2.77,1.33-1.33,.45-2.75,.72-4.18,.82-1.43,.1-2.89,.04-4.32-.22-1.43-.26-2.84-.7-4.11-1.47,1.17,.9,2.57,1.51,4,1.93Zm-27.42-26.23c2.51,.89,4.67,2.42,6.31,4.5,1.64,2.07,2.64,4.52,2.93,7.17-2.51-.89-4.67-2.42-6.31-4.5-1.64-2.07-2.64-4.52-2.93-7.17Zm3.98,17.45c-1.66,.1-3.29-.38-4.8-1.4,1.38-1.18,2.95-1.85,4.61-1.95,1.66-.1,3.29,.38,4.8,1.4-1.38,1.18-2.95,1.85-4.61,1.95ZM43.53,103.32c.04-12.02,4.19-22.83,11.37-29.66,5.33-5.07,12.87-8.53,21.8-10.02,3.24-.54,6.51-.81,9.78-.81,6.39,0,12.77,1.02,18.84,3.03,4.29,1.43,7.81,3.14,10.76,5.25,8.82,6.31,12.98,16.47,14.92,23.88,1.54,5.89,1.95,10.95,1.27,15.48-.82,5.37-3.36,10.13-6.98,13.05-1.39,1.12-2.95,2.01-4.6,2.96-.96,.55-1.94,1.11-2.9,1.73,6.07-14.01,3.38-30.93-8.05-42.37-12.07-12.07-31.71-12.07-43.78,0-4.73,4.73-7.34,11.03-7.34,17.73s2.61,12.99,7.34,17.73c3.84,3.85,8.96,5.96,14.39,5.96s10.55-2.12,14.39-5.96c3.13-3.13,4.86-7.3,4.86-11.73s-1.73-8.6-4.86-11.73c-5.29-5.29-13.9-5.29-19.19,0-3.96,3.96-4.32,10.19-1.06,14.56,.51,.69,1.51,.77,2.11,.17l.16-.16c.49-.49,.54-1.26,.13-1.81-2.37-3.19-2.11-7.73,.78-10.62,4.12-4.12,10.82-4.12,14.94,0,2.65,2.65,4.07,6.19,3.97,9.95-.09,3.81-2.89,8.7-5.96,10.97-2.96,2.19-6.53,3.37-10.28,3.37-4.63,0-8.99-1.8-12.27-5.08-4.17-4.17-6.46-9.71-6.46-15.6s2.29-11.43,6.46-15.6c10.9-10.9,28.63-10.9,39.53,0,13.26,13.26,13.74,34.53,1.47,48.38-1.8,1.95-3.59,3.74-5.74,5.07-2.19,1.36-4.93,2.31-8.14,2.83-8.83,1.43-18.66-.7-27.7-6-16.19-9.5-24.03-20.92-23.98-34.93Zm109.98-2.84c-.65,7.42-4.44,14.48-7.78,20.72-1.39,2.6-2.84,5.28-4.73,7.51-2.55,2.99-5.85,5.14-9.35,7.42-1.27,.83-2.58,1.68-3.84,2.57-5.93,4.19-11.01,9.36-15.09,15.37-.26,.38-.51,.76-.77,1.15-1.88,2.83-3.83,5.75-6.7,6.91-3.57,1.45-9.61,.76-17.48-2.01-2.34-.82-4.69-1.84-6.96-2.82-3.49-1.51-7.11-3.07-10.93-4.05-5.63-1.44-11.47-1.54-17.12-1.64-3.72-.06-7.56-.13-11.26-.58-8.69-1.07-11.27-4.81-12.03-6.94-.84-2.36-.4-5.36,1.19-8.03,1.25-2.11,3.11-4.14,5.85-6.38,1.68-1.38,3.48-2.67,5.22-3.91,.72-.51,1.43-1.02,2.11-1.52,.7-.52,1.42-1.03,2.13-1.53,4.2,6.74,10.85,12.74,20.02,18.12,7.66,4.5,15.9,6.85,23.74,6.85,2.02,0,4.01-.16,5.95-.47,3.61-.58,6.72-1.67,9.24-3.24,1.79-1.11,3.35-2.49,4.8-3.95h.01c.58-.57,1.14-1.17,1.68-1.78,.34-.37,.68-.74,1.02-1.11,1.87-2.06,3.64-4,5.74-5.55,1.24-.92,2.58-1.68,4-2.5,1.68-.96,3.42-1.96,5-3.23,4.26-3.44,7.12-8.74,8.06-14.93,.75-4.94,.32-10.4-1.33-16.69-2.06-7.89-6.53-18.73-16.08-25.57-1.27-.91-2.63-1.74-4.1-2.52,1.09-1.98,1.82-4.07,2.32-6.24,5.56,5.72,11.76,13.44,13.88,17.44,.48,.91,1.38,1.52,2.4,1.64,.12,.01,.25,.02,.37,.02,.9,0,1.77-.39,2.37-1.07,3.15-3.57,7.96-8.23,11.55-11.2,7.23,17.91,7.39,27.82,6.87,33.73Z"/></g><g><g><g><path class="f" d="M70.98,188.39v29.61c0,.92-.75,1.66-1.66,1.66s-1.67-.75-1.67-1.66v-21.84l-9.86,22.07c-.1,.23-.25,.42-.42,.57-.16,.18-.35,.32-.58,.42-.22,.09-.44,.14-.67,.14-.64,0-1.25-.37-1.53-1l-9.85-22.54v22.02c0,.92-.75,1.66-1.66,1.66s-1.66-.75-1.66-1.66v-29.65c0-.92,.75-1.66,1.66-1.66,.02,0,.04,0,.07,0,.67-.03,1.32,.34,1.61,.99l11.43,26.14,11.6-25.97h0v-.03s.03-.02,.03-.04c.02-.03,.03-.07,.05-.1,.01-.02,.02-.04,.04-.06,.02-.03,.03-.05,.05-.07,.02-.02,.03-.05,.05-.07,.01-.02,.03-.04,.04-.06,.02-.02,.04-.05,.06-.07,.02-.02,.03-.03,.05-.05,.02-.02,.05-.04,.07-.06,.02-.02,.04-.03,.05-.04,.02-.02,.04-.03,.07-.05,.02-.02,.04-.03,.07-.05,.02-.01,.04-.03,.06-.04,.03-.02,.05-.03,.08-.04,.02,0,.04-.02,.06-.03,.03-.01,.06-.03,.09-.04l.06-.02s.06-.02,.09-.03c.02,0,.04-.01,.06-.02,.03,0,.06-.01,.09-.02,.03,0,.06,0,.08-.01,.02,0,.05,0,.07,0,.04,0,.07,0,.11,0,.01,0,.03,0,.04,0h.01s.08,0,.12,0c.02,0,.03,0,.05,0,.03,0,.06,0,.1,.01,.02,0,.05,0,.07,.01,.02,0,.04,.01,.07,.02,.03,0,.06,.02,.1,.03,.02,0,.03,.01,.05,.02,.04,.01,.07,.03,.11,.04h.01s.02,.02,.04,.02c.03,.02,.07,.03,.1,.05,.02,.01,.04,.02,.06,.04,.02,.02,.05,.03,.07,.05,.02,.02,.05,.03,.07,.05,.02,.01,.04,.03,.06,.04,.02,.02,.05,.04,.07,.06,.02,.01,.03,.03,.05,.04,.02,.02,.04,.05,.06,.07,.01,.02,.03,.03,.04,.05,.02,.02,.04,.05,.05,.07,.01,.02,.03,.04,.04,.06,.01,.02,.03,.04,.04,.06,.02,.03,.03,.05,.04,.08,0,.02,.02,.04,.03,.06,.01,.03,.03,.06,.04,.09,0,.02,.01,.04,.02,.06,.01,.03,.02,.06,.03,.09,0,.02,.01,.04,.02,.07,0,.03,.01,.06,.02,.09,0,.03,0,.06,.01,.09,0,.02,0,.05,0,.07,0,.04,0,.07,0,.11,0,.01,0,.03,0,.04v.03h0Z"/><path class="f" d="M108.17,203.02c0,9.42-6.9,17.09-15.39,17.09s-15.39-7.67-15.39-17.09,6.9-17.09,15.39-17.09,15.39,7.67,15.39,17.09Zm-3.33,0c0-7.59-5.41-13.76-12.06-13.76s-12.06,6.17-12.06,13.76,5.41,13.76,12.06,13.76,12.06-6.17,12.06-13.76Z"/><path class="f" d="M132.02,206.47c-1.73,1.55-3.75,2.15-5.26,2.38l7.68,8.1c.63,.67,.61,1.72-.06,2.35-.32,.31-.73,.46-1.15,.46-.44,0-.88-.17-1.21-.52l-9.78-10.3-4.36-.05v9.21c0,.92-.75,1.66-1.66,1.66s-1.66-.75-1.66-1.66v-29.79c0-.69,.42-1.28,1.02-1.53,.25-.14,.53-.22,.83-.22h7.64c.6-.03,5.13-.11,8.32,2.95,2.08,2,3.1,4.82,3.03,8.39-.07,3.75-1.21,6.64-3.38,8.59Zm.05-8.65c.05-2.6-.63-4.6-2.01-5.92-2.27-2.18-5.84-2.03-5.87-2.03-.03,0-.07,0-.1,0h-6.2v15.69l6.81,.08s.09,0,.13,0c.02,0,2.93,.2,4.99-1.67,1.44-1.31,2.2-3.38,2.25-6.15Z"/><path class="f" d="M145.14,188.21v29.88c0,.92-.75,1.66-1.66,1.66s-1.66-.75-1.66-1.66v-29.88c0-.92,.75-1.66,1.66-1.66s1.66,.75,1.66,1.66Z"/><path class="f" d="M176.22,219.56c-.19,.07-.39,.11-.58,.11-.67,0-1.31-.41-1.56-1.08l-2.09-5.58h-15.16l-2.07,5.57c-.25,.67-.88,1.09-1.56,1.09-.19,0-.39-.03-.58-.1-.86-.32-1.3-1.28-.98-2.14l2.4-6.47c.03-.13,.08-.26,.14-.38l8.5-22.95c.1-.27,.27-.5,.47-.68,.18-.21,.41-.37,.68-.47,.86-.32,1.82,.11,2.14,.98l11.22,29.97c.32,.86-.11,1.82-.98,2.14Zm-5.48-9.88l-6.37-17.02-6.31,17.02h12.68Z"/><path class="f" d="M2.99,200.92c-.34,.38-.77,.57-1.29,.57-.45,0-.82-.15-1.13-.46C.19,200.68,0,200.25,0,199.74c0-.45,.15-.82,.46-1.13,1.06-1.17,2.39-2.08,3.97-2.73,1.58-.65,3.24-.98,5-.98,.34-1.03,1.83-5.48,2.31-7.19-1.24-.96-2.22-2.15-2.96-3.58-.74-1.42-1.11-2.91-1.11-4.45,0-.38,.02-.75,.05-1.13,.31-2.33,1.41-4.34,3.3-6.03,1.89-1.68,4.02-2.54,6.39-2.57h.31c.38,0,.72,.12,1.03,.36,.31,.24,.51,.57,.62,.98,2.99,12.67,9.42,33.89,13.78,46.08,.07,.17,.1,.36,.1,.57,0,.76-.34,1.29-1.03,1.6-.21,.1-.43,.15-.67,.15-.69,0-1.2-.31-1.54-.93-1.65-3.23-5.36-12-7.9-14.89-2.44-2.78-6.48-4.92-10.19-5.25-1.51,4.84-4.78,15.33-6.43,19.93-.28,.76-.81,1.13-1.6,1.13-.21,0-.4-.03-.57-.1-.76-.24-1.13-.77-1.13-1.6,0-.21,.02-.39,.05-.57,1.58-4.39,4.76-14.58,6.17-19.01-2.27,.21-4.07,1.05-5.41,2.52Zm8.13-21.92c-.03,.21-.05,.43-.05,.67,0,1.61,.57,3.06,1.7,4.33,.96-3.47,1.85-6.88,2.68-10.25-1.13,.41-2.09,1.1-2.88,2.06-.79,.96-1.27,2.03-1.44,3.19Zm6.59-.21c-.72,2.82-1.37,5.2-1.96,7.16,.03,.03,.07,.05,.1,.05,.38,.1,.68,.31,.9,.62,.22,.31,.33,.65,.33,1.03,0,.14-.02,.29-.05,.46-.1,.38-.31,.68-.62,.9-.31,.22-.65,.33-1.03,.33-.14,0-.29-.02-.46-.05-.03,0-.07-.02-.1-.05-.1,.34-.25,.85-.44,1.52-.19,.67-1.41,4.25-1.51,4.59,3.96,.27,8.71,2.85,11.53,5.97-2.06-6.56-5.05-16.12-6.7-22.54Z"/></g><g><path class="f" d="M174.61,198.93c-.24,.26-.69,.72-1.09,1.22-.36,.45-.65,.96-.97,1.44-.08,.12-.16,.23-.24,.35-.05-.12-.12-.23-.15-.35-.64-2.57-.28-5.16,1.3-7.56,1.09-1.65,2.45-3.11,3.64-4.69,.68-.89,1.27-1.86,1.91-2.8,.03-.05,.07-.09,.11-.13,.04,.04,.09,.06,.11,.11,1.01,2.92,1.21,5.92-.96,8.88-.82,1.11-1.95,1.95-2.94,2.91-.16,.15-.33,.29-.71,.63Z"/><path class="f" d="M182.72,199.28c-.6,.62-1.13,1.26-1.73,1.76-1.83,1.51-3.48,.92-5.13,.25-.59-.24-1.25-.29-1.95-.44,.38-.34,.74-.7,1.13-1.01,1.73-1.35,3.45-1.08,5.17-.83,.78,.11,1.58,.17,2.51,.26Z"/></g></g><g><path class="f" d="M76.91,239.12c0,.67-.54,1.21-1.21,1.21h-7.58v20.53c0,.67-.54,1.21-1.21,1.21s-1.21-.54-1.21-1.21v-20.53h-7.12c-.67,0-1.21-.54-1.21-1.21s.54-1.21,1.21-1.21h17.13c.67,0,1.21,.54,1.21,1.21Z"/><path class="f" d="M97.88,260.79c0,.67-.54,1.21-1.21,1.21h-12.21c-.12,0-.24-.02-.35-.05-.63-.05-1.12-.57-1.12-1.21v-21.68h0c0-.68,.54-1.22,1.21-1.22h12.21c.67,0,1.21,.54,1.21,1.21s-.54,1.21-1.21,1.21h-11v8.21h7.8c.67,0,1.21,.54,1.21,1.21s-.54,1.21-1.21,1.21h-7.8v8.67h11.25c.67,0,1.21,.54,1.21,1.21Z"/><path class="f" d="M120.66,261.93c-.14,.05-.28,.08-.43,.08-.49,0-.96-.3-1.14-.79l-1.52-4.07h-11.06l-1.51,4.07c-.18,.49-.65,.79-1.14,.79-.14,0-.28-.03-.42-.08-.63-.23-.95-.93-.72-1.56l1.75-4.72c.02-.1,.06-.19,.1-.28l6.2-16.74c.07-.2,.2-.37,.35-.5,.13-.15,.3-.27,.5-.35,.63-.24,1.33,.08,1.56,.71l8.18,21.87c.23,.63-.08,1.33-.71,1.56Zm-4-7.21l-4.65-12.42-4.6,12.42h9.25Z"/></g></g></svg>